<svg width="400" height="41" viewBox="0 0 400 41" fill="none" xmlns="http://www.w3.org/2000/svg">
<path d="M358.561 36.944C355.703 36.944 354.274 35.6044 354.274 33.0145V13.6349C354.274 12.2953 354.632 11.2236 355.346 10.5092C356.061 9.79473 357.043 9.4375 358.383 9.4375H361.062C363.562 9.4375 365.795 9.70542 367.581 10.3306C369.367 10.9557 370.885 11.8488 372.046 12.9205C373.118 14.0815 374.011 15.4211 374.547 17.0286C374.994 18.6361 375.351 20.6008 375.351 22.5656C375.351 24.6196 375.083 26.4951 374.636 28.2812C374.1 30.0674 373.297 31.5856 372.225 32.8359C371.064 34.1755 369.635 35.2471 367.849 35.9616C365.974 36.7654 363.83 37.0333 361.24 37.0333H358.561V36.944ZM360.704 31.6749C362.312 31.6749 363.741 31.4963 364.902 30.9604C365.974 30.5139 366.956 29.8887 367.67 28.9957C368.385 28.1919 368.921 27.2095 369.189 26.0486C369.457 24.9769 369.635 23.7266 369.635 22.387C369.635 21.226 369.457 20.1543 369.189 19.1719C368.831 18.2789 368.296 17.3858 367.581 16.7607C366.777 16.0462 365.884 15.5104 364.813 15.1531C363.652 14.7959 362.312 14.6173 360.704 14.6173C360.347 14.6173 360.169 14.7066 359.99 14.7066C359.811 14.7959 359.811 14.9745 359.811 15.2424V30.6925C359.811 30.9604 359.901 31.139 359.99 31.407C360.079 31.5856 360.347 31.6749 360.704 31.6749Z" fill="black"/>
<path d="M276.667 38.7301C268.451 38.7301 261.753 31.8534 261.753 23.3693C261.753 14.8852 268.451 8.00854 276.667 8.00854C284.883 8.00854 291.581 14.8852 291.581 23.3693C291.581 31.8534 284.883 38.7301 276.667 38.7301ZM276.667 15.2424C272.38 15.2424 268.987 18.904 268.987 23.3693C268.987 27.8346 272.47 31.4962 276.667 31.4962C280.954 31.4962 284.348 27.8346 284.348 23.3693C284.348 18.904 280.954 15.2424 276.667 15.2424Z" fill="#FFD900"/>
<path d="M398.034 9.61597V27.388C398.034 31.4961 396.962 34.1753 394.819 35.4256C392.676 36.6759 390.354 37.3011 387.853 37.3011C385.352 37.2118 383.12 36.4973 381.066 35.247C379.012 33.9967 378.029 31.3175 378.029 27.388V9.61597H384.102V28.549C384.102 29.8886 384.549 30.9603 385.352 31.5854C386.156 32.2106 387.049 32.5678 388.121 32.5678C389.193 32.5678 390.086 32.2106 390.889 31.5854C391.693 30.9603 392.14 29.9779 392.14 28.549V12.5631C392.14 11.7593 392.408 11.0449 392.944 10.509C393.479 9.97319 394.194 9.61597 395.087 9.61597H398.034Z" fill="black"/>
<path d="M316.409 16.5819V9.52671H313.551C312.747 9.52671 312.033 9.79463 311.586 10.3305C311.05 10.8663 310.782 11.4915 310.782 12.2952V16.5819C310.782 16.6713 310.782 16.7606 310.782 16.8499V26.495L299.887 10.6877C299.44 10.0626 298.904 9.61602 298.19 9.43741C297.476 9.25879 296.761 9.3481 296.225 9.61602C295.779 9.79463 295.421 10.1519 295.154 10.5091C294.796 10.9556 294.707 11.4915 294.707 12.0273V33.9968C294.707 36.1401 295.6 37.2118 297.565 37.2118C299.44 37.2118 300.423 36.1401 300.423 33.9968V20.6007L310.693 34.8898C311.139 35.515 311.675 36.0508 312.3 36.4973C312.836 36.9439 313.461 37.1225 314.176 37.1225C314.89 37.1225 315.426 36.8546 315.962 36.408C316.319 35.9615 316.587 35.1577 316.587 33.9968V16.7606C316.409 16.6713 316.409 16.6713 316.409 16.5819Z" fill="black"/>
<path d="M257.912 11.9378C257.912 9.88379 256.93 8.99072 254.965 8.99072C253.625 8.99072 252.643 9.52656 251.66 11.4913L246.034 22.744C245.855 23.0119 245.855 23.1905 245.677 23.1905C245.498 23.1905 245.498 23.0119 245.32 22.744L239.693 11.4913C238.711 9.52656 237.729 8.99072 236.3 8.99072C234.424 8.99072 233.353 9.88379 233.353 11.9378V34.5324C233.353 36.2293 234.692 36.6758 235.942 36.6758C237.193 36.6758 238.532 36.2293 238.532 34.5324V21.4044C238.532 21.4044 238.532 21.0471 238.711 21.0471C238.89 21.0471 238.979 21.2257 238.979 21.2257L241.926 26.8521C243.087 29.0847 243.801 30.335 245.677 30.335C247.552 30.335 248.267 29.0847 249.428 26.8521L252.375 21.2257C252.375 21.2257 252.464 21.0471 252.643 21.0471C252.821 21.0471 252.821 21.4044 252.821 21.4044V34.2645C252.821 34.979 253.089 35.5148 253.536 36.0507C253.982 36.5865 254.608 36.7651 255.322 36.7651H257.912V11.9378Z" fill="black"/>
<path d="M202.81 26.9413C204.15 26.2268 205.222 25.2445 206.025 23.9942C206.829 22.7439 207.186 21.1363 207.186 19.2609C207.186 17.1175 206.829 15.4207 206.025 14.0811C205.222 12.8308 204.15 11.7591 202.9 11.0447C201.56 10.4195 199.952 9.88369 198.256 9.61577C196.469 9.43716 194.594 9.25854 192.629 9.25854H190.307C189.236 9.25854 188.432 9.52646 187.896 10.0623C187.36 10.5981 187.003 11.4019 187.003 12.5629V33.7286C187.003 34.8896 187.271 35.604 187.717 36.0506C188.164 36.4971 188.878 36.6757 189.861 36.6757C190.754 36.6757 191.468 36.4971 192.004 36.0506C192.451 35.6933 192.629 34.8896 192.629 33.7286V28.6381H194.594H195.844C196.202 28.6381 197.005 28.6381 197.452 28.6381L200.667 34.8896C201.024 35.5147 201.471 35.9613 202.185 36.2292C202.9 36.4971 203.525 36.4078 204.239 36.0506L206.65 34.8003L202.81 26.9413ZM194.951 23.4583H192.808V14.5276H194.326C197.005 14.5276 198.97 14.8849 200.131 15.5993C201.203 16.4031 201.739 17.4748 201.649 19.0823C201.56 19.9754 201.381 20.6005 201.024 21.1363C200.667 21.6722 200.131 22.208 199.595 22.5652C198.97 22.9225 198.256 23.1904 197.452 23.369C196.648 23.4583 195.844 23.4583 194.951 23.4583Z" fill="black"/>
<path d="M226.476 25.5126C227.548 25.5126 228.352 25.334 228.798 24.8874C229.155 24.4409 229.423 23.8157 229.423 22.8334C229.423 21.9403 229.155 21.2258 228.798 20.69C228.352 20.2435 227.637 19.9755 226.476 19.9755H216.117V14.7065H226.566C227.637 14.7065 228.441 14.4385 228.887 13.992C229.245 13.5455 229.513 12.9203 229.513 11.9379C229.513 11.0449 229.245 10.3304 228.887 9.88389C228.441 9.43735 227.726 9.16943 226.566 9.16943H214.866C213.348 9.16943 212.276 9.43735 211.562 10.0625C210.758 10.5983 210.49 11.5807 210.49 12.9203V30.7817C210.49 30.7817 210.401 36.408 217.099 36.5866H229.245V34.5325V33.1929C229.245 33.1929 229.245 31.2282 226.833 31.2282C225.226 31.2282 218.707 31.2282 218.707 31.2282C218.707 31.2282 216.385 31.3175 216.206 29.2635V25.6019H226.476V25.5126Z" fill="black"/>
<path d="M348.112 25.5123C349.184 25.5123 349.987 25.3337 350.434 24.8872C350.791 24.4406 351.059 23.8155 351.059 22.8331C351.059 21.9401 350.791 21.2256 350.434 20.6898C349.987 20.2432 349.273 19.9753 348.112 19.9753H337.752V14.7062H348.201C349.273 14.7062 350.077 14.4383 350.523 13.9918C350.88 13.5452 351.148 12.9201 351.148 11.9377C351.148 11.0446 350.88 10.3302 350.523 9.88364C350.077 9.43711 349.362 9.16919 348.201 9.16919H336.502C334.984 9.16919 333.912 9.43711 333.198 10.0623C332.394 10.5981 332.126 11.5805 332.126 12.9201V30.7814C332.126 30.7814 332.037 36.4077 338.735 36.5864H350.88V34.5323V33.1927C350.88 33.1927 350.88 31.228 348.469 31.228C346.862 31.228 340.342 31.228 340.342 31.228C340.342 31.228 338.02 31.3173 337.842 29.2632V25.6016H348.112V25.5123Z" fill="black"/>
<path d="M266.307 7.9191V10.3304H263.895C260.859 10.3304 258.358 7.82979 258.358 4.79336V2.38208H260.77C263.806 2.38208 266.307 4.88267 266.307 7.9191Z" fill="#66A657"/>
<path d="M102.519 30.4251H93.2316C92.1599 30.4251 91.2668 29.5321 91.2668 28.4604V26.8529H102.252C104.127 26.8529 105.645 25.3346 105.645 23.4592C105.645 21.5838 104.127 20.0655 102.252 20.0655H91.2668V18.2794C91.2668 17.2077 92.1599 16.3147 93.2316 16.3147H102.519C104.395 16.3147 105.913 14.7964 105.913 12.921C105.913 11.0456 104.395 9.52734 102.519 9.52734H93.2316C88.409 9.52734 84.4795 13.4568 84.4795 18.2794V28.3711C84.4795 33.1936 88.409 37.1231 93.2316 37.1231H102.519C104.395 37.1231 105.913 35.6049 105.913 33.7295C105.913 31.854 104.395 30.4251 102.519 30.4251Z" fill="black"/>
<path d="M33.3957 36.0513C26.1618 36.0513 20.2676 30.1571 20.2676 22.9233C20.2676 15.6894 26.1618 9.79517 33.3957 9.79517C40.6295 9.79517 46.5238 15.6894 46.5238 22.9233C46.5238 30.1571 40.6295 36.0513 33.3957 36.0513ZM33.3957 16.4932C29.9127 16.4932 26.9656 19.351 26.9656 22.9233C26.9656 26.4955 29.8234 29.3533 33.3957 29.3533C36.8786 29.3533 39.8258 26.4955 39.8258 22.9233C39.8258 19.351 36.9679 16.4932 33.3957 16.4932Z" fill="#58B763"/>
<path d="M68.8507 35.6049C66.9753 35.6049 65.4571 34.0866 65.4571 32.2112V20.4227C65.4571 18.1007 63.4923 16.136 61.1703 16.136H60.4559C58.1339 16.136 56.1692 18.1007 56.1692 20.4227V32.2112C56.1692 34.0866 54.6509 35.6049 52.7755 35.6049C50.9001 35.6049 49.3818 34.0866 49.3818 32.2112V20.4227C49.3818 14.3499 54.2937 9.43799 60.3666 9.43799H61.081C67.1539 9.43799 72.0657 14.3499 72.0657 20.4227V32.2112C72.1551 34.0866 70.6368 35.6049 68.8507 35.6049Z" fill="black"/>
<path d="M146.816 37.8374H146.548C140.565 37.8374 135.742 33.0148 135.742 27.0313V13.4566C135.742 11.5812 137.26 10.063 139.136 10.063C141.011 10.063 142.53 11.5812 142.53 13.4566V27.0313C142.53 29.2639 144.316 31.1394 146.638 31.1394H146.906C149.138 31.1394 151.014 29.3532 151.014 27.0313V13.4566C151.014 11.5812 152.532 10.063 154.407 10.063C156.283 10.063 157.801 11.5812 157.801 13.4566V27.0313C157.622 33.0148 152.8 37.8374 146.816 37.8374Z" fill="black"/>
<path d="M120.201 36.9445H114.664C112.163 36.9445 110.109 34.8905 110.109 32.3899V14.082C110.109 11.5814 112.163 9.52734 114.664 9.52734H120.201C126.631 9.52734 131.9 14.7964 131.9 21.2265V25.156C131.99 31.6754 126.72 36.9445 120.201 36.9445ZM116.807 30.2465H120.201C122.97 30.2465 125.202 28.0138 125.202 25.2453V21.3158C125.202 18.5473 122.97 16.3147 120.201 16.3147H116.807V30.2465Z" fill="black"/>
<path d="M13.213 35.1581C11.3376 35.1581 9.81934 33.6399 9.81934 31.7645V14.2604C9.81934 12.3849 11.3376 10.8667 13.213 10.8667C15.0884 10.8667 16.6066 12.3849 16.6066 14.2604V31.8538C16.6066 33.7292 15.0884 35.1581 13.213 35.1581Z" fill="black"/>
<path d="M9.90826 8.63399V9.43775C9.90826 10.1522 9.28311 10.7774 8.56866 10.7774H7.7649C4.54986 10.7774 1.95996 8.18746 1.95996 4.97241V4.07935C1.95996 3.36489 2.58511 2.73975 3.29956 2.73975H4.10332C7.31837 2.73975 9.90826 5.41895 9.90826 8.63399Z" fill="#58B763"/>
<path d="M177.448 17.2966L171.554 23.2802L165.57 17.2966L165.213 17.7432L171.196 23.6374L165.213 29.621L165.57 29.9782L171.554 23.9946L177.448 29.9782L177.894 29.621L171.911 23.6374L177.894 17.7432L177.448 17.2966Z" fill="black"/>
</svg>
